<svg xmlns="http://www.w3.org/2000/svg" width="135.278" height="15.774" viewBox="0 0 135.278 15.774"><g transform="translate(-752.77 -489.424)"><path d="M.77-15.4V-3.674C.77-1.21,2,.2,4.378.2S7.986-1.21,7.986-3.674V-15.4H5.7V-3.52c0,1.1-.484,1.5-1.254,1.5S3.19-2.42,3.19-3.52V-15.4Zm14.388,0L13.31-9.724h-.044l-1.8-5.676H8.954l2.53,7.48L8.778,0h2.266l1.98-6.094h.044L15.026,0h2.552L14.872-7.92,17.4-15.4ZM18.48,0H20.9V-15.4H18.48Zm3.564-11.7c0,1.76.638,3.036,2.662,4.818C26.29-5.5,26.774-4.664,26.774-3.542c0,1.1-.484,1.5-1.254,1.5s-1.254-.4-1.254-1.5v-1.1H21.978V-3.7c0,2.464,1.232,3.872,3.608,3.872S29.194-1.232,29.194-3.7c0-1.76-.638-3.036-2.662-4.818-1.584-1.386-2.068-2.222-2.068-3.344,0-1.1.44-1.518,1.21-1.518s1.21.418,1.21,1.518v.638h2.288V-11.7c0-2.464-1.21-3.872-3.564-3.872S22.044-14.168,22.044-11.7Z" transform="translate(752 505)"/><path d="M.88,0H4.708c2.42,0,3.608-1.342,3.608-3.806v-7.788c0-2.464-1.188-3.806-3.608-3.806H.88ZM4.664-13.2c.77,0,1.232.4,1.232,1.5V-3.7c0,1.1-.462,1.5-1.232,1.5H3.3v-11Zm7.3,0h4.18v-2.2h-6.6V0h6.6V-2.2h-4.18V-6.71H15.29v-2.2H11.968Zm5.06,1.5c0,1.76.638,3.036,2.662,4.818,1.584,1.386,2.068,2.222,2.068,3.344,0,1.1-.484,1.5-1.254,1.5s-1.254-.4-1.254-1.5v-1.1H16.962V-3.7c0,2.464,1.232,3.872,3.608,3.872S24.178-1.232,24.178-3.7c0-1.76-.638-3.036-2.662-4.818-1.584-1.386-2.068-2.222-2.068-3.344,0-1.1.44-1.518,1.21-1.518s1.21.418,1.21,1.518v.638h2.288V-11.7c0-2.464-1.21-3.872-3.564-3.872S17.028-14.168,17.028-11.7ZM25.256,0h2.42V-15.4h-2.42Zm7.5-6.38h1.1v2.838c0,1.1-.484,1.5-1.254,1.5s-1.254-.4-1.254-1.5v-8.316c0-1.1.484-1.518,1.254-1.518s1.254.418,1.254,1.518v1.65h2.288v-1.5c0-2.464-1.232-3.872-3.608-3.872S28.93-14.168,28.93-11.7V-3.7c0,2.464,1.232,3.872,3.608,3.872S36.146-1.232,36.146-3.7V-8.58H32.758ZM42.57,0h2.486V-15.4H42.9v9.218h-.044L40.414-15.4H37.378V0h2.178V-11.154H39.6ZM54.956-15.4H51.414L48.95,0h2.222l.418-2.794h2.97L54.978,0H57.42Zm-1.914,2.728h.044L54.23-4.884H51.9ZM65.758,0a4.535,4.535,0,0,1-.264-1.87V-4.246c0-1.606-.4-2.75-1.606-3.256v-.044c1.078-.506,1.584-1.518,1.584-3.1v-1.21c0-2.376-1.078-3.542-3.586-3.542H58.234V0h2.42V-6.27h.836c1.1,0,1.584.528,1.584,1.958v2.42A4.736,4.736,0,0,0,63.294,0ZM61.82-13.2c.858,0,1.232.484,1.232,1.584V-10.1c0,1.232-.55,1.628-1.452,1.628h-.946V-13.2ZM71.5-5.742v2.2c0,1.1-.484,1.5-1.254,1.5s-1.254-.4-1.254-1.5v-8.316c0-1.1.484-1.518,1.254-1.518s1.254.418,1.254,1.518v1.65h2.288v-1.5c0-2.464-1.232-3.872-3.608-3.872s-3.608,1.408-3.608,3.872V-3.7C66.572-1.232,67.8.176,70.18.176S73.788-1.232,73.788-3.7V-5.742ZM77.374-6.6h2.75V0h2.464V-15.4H80.124v6.6h-2.75v-6.6h-2.42V0h2.42ZM84.04,0h2.42V-15.4H84.04Zm5.676-15.4H87.274L89.65,0h3.608l2.376-15.4H93.412L91.586-2.838h-.044Zm9.152,2.2h4.18v-2.2h-6.6V0h6.6V-2.2h-4.18V-6.71h3.322v-2.2H98.868Z" transform="translate(785 505)" fill="#9f9f9f"/></g></svg>